<?xml version="1.0" encoding="UTF-8" standalone="no"?>
<svg
   width="16"
   height="16"
   fill="currentColor"
   class="bi bi-toggle2-off"
   viewBox="0 0 16 16"
   version="1.1"
   id="svg2"
   sodipodi:docname="toggle2-day-alt.svg"
   xml:space="preserve"
   inkscape:version="1.4.2 (f4327f4, 2025-05-13)"
   xmlns:inkscape="http://www.inkscape.org/namespaces/inkscape"
   xmlns:sodipodi="http://sodipodi.sourceforge.net/DTD/sodipodi-0.dtd"
   xmlns:xlink="http://www.w3.org/1999/xlink"
   xmlns="http://www.w3.org/2000/svg"
   xmlns:svg="http://www.w3.org/2000/svg"><defs
     id="defs2"><linearGradient
       id="swatch1"
       inkscape:swatch="solid"><stop
         style="stop-color:#000000;stop-opacity:1;"
         offset="0"
         id="stop1" /></linearGradient><linearGradient
       inkscape:collect="always"
       xlink:href="#swatch1"
       id="linearGradient1"
       x1="0"
       y1="8"
       x2="10"
       y2="8"
       gradientUnits="userSpaceOnUse" /></defs><sodipodi:namedview
     id="namedview2"
     pagecolor="#ffffff"
     bordercolor="#000000"
     borderopacity="0.25"
     inkscape:showpageshadow="2"
     inkscape:pageopacity="0.0"
     inkscape:pagecheckerboard="0"
     inkscape:deskcolor="#d1d1d1"
     showgrid="false"
     inkscape:zoom="50.5"
     inkscape:cx="7.990099"
     inkscape:cy="8"
     inkscape:window-width="1920"
     inkscape:window-height="1010"
     inkscape:window-x="1433"
     inkscape:window-y="-6"
     inkscape:window-maximized="1"
     inkscape:current-layer="svg2" /><path
     d="M9 11c.628-.836 1-1.874 1-3a4.98 4.98 0 0 0-1-3h4a3 3 0 1 1 0 6z"
     id="path1" /><path
     d="M5 12a4 4 0 1 1 0-8 4 4 0 0 1 0 8m0 1A5 5 0 1 0 5 3a5 5 0 0 0 0 10"
     id="path2"
     style="fill:url(#linearGradient1)" /><g
     style="fill:#ffcc00"
     id="g2"
     transform="matrix(0.45420792,0,0,0.49009901,1.3663365,4.029703)"><path
       d="M 12,8 A 4,4 0 1 1 4,8 4,4 0 0 1 12,8 M 8,0 a 0.5,0.5 0 0 1 0.5,0.5 v 2 a 0.5,0.5 0 0 1 -1,0 v -2 A 0.5,0.5 0 0 1 8,0 m 0,13 a 0.5,0.5 0 0 1 0.5,0.5 v 2 a 0.5,0.5 0 0 1 -1,0 v -2 A 0.5,0.5 0 0 1 8,13 m 8,-5 a 0.5,0.5 0 0 1 -0.5,0.5 h -2 a 0.5,0.5 0 0 1 0,-1 h 2 A 0.5,0.5 0 0 1 16,8 M 3,8 A 0.5,0.5 0 0 1 2.5,8.5 h -2 a 0.5,0.5 0 0 1 0,-1 h 2 A 0.5,0.5 0 0 1 3,8 M 13.657,2.343 a 0.5,0.5 0 0 1 0,0.707 L 12.243,4.465 A 0.50027817,0.50027817 0 1 1 11.536,3.757 L 12.95,2.343 a 0.5,0.5 0 0 1 0.707,0 m -9.193,9.193 a 0.5,0.5 0 0 1 0,0.707 L 3.05,13.657 A 0.5,0.5 0 0 1 2.343,12.95 l 1.414,-1.414 a 0.5,0.5 0 0 1 0.707,0 m 9.193,2.121 a 0.5,0.5 0 0 1 -0.707,0 l -1.414,-1.414 a 0.5,0.5 0 0 1 0.707,-0.707 l 1.414,1.414 a 0.5,0.5 0 0 1 0,0.707 M 4.464,4.465 a 0.5,0.5 0 0 1 -0.707,0 L 2.343,3.05 A 0.5,0.5 0 1 1 3.05,2.343 l 1.414,1.414 a 0.5,0.5 0 0 1 0,0.708"
       id="path1-0"
       style="fill:#ffcc00" /></g><path
     style="fill:#000000;stroke-width:0.019802"
     d="M 4.5841584,11.968194 C 3.1592477,11.807324 1.9377677,10.916335 1.3538048,9.6118655 1.2408279,9.359495 1.1383379,9.0313283 1.0752823,8.7200527 1.0349267,8.5208366 1.029703,8.4383129 1.029703,8 c 0,-0.4383129 0.00522,-0.5208366 0.045579,-0.7200527 C 1.243814,6.4479869 1.6133016,5.750591 2.1888007,5.1782178 3.3858366,3.9876835 5.1972426,3.6739055 6.7004933,4.3966868 c 0.4374322,0.2103228 0.7771073,0.4481048 1.1022851,0.77163 0.6494244,0.6461239 1.046001,1.4576711 1.1584442,2.3706182 0.031702,0.2573923 0.014789,0.8961632 -0.030296,1.1442333 -0.2923303,1.6084787 -1.5147374,2.8764757 -3.1001835,3.2158057 -0.3981497,0.08521 -0.8718978,0.111521 -1.2465847,0.06922 z m 0.5479529,-0.130657 c 0.097384,-0.06381 0.105515,-0.118017 0.1054818,-0.703238 -3.53e-5,-0.616073 -0.00663,-0.648272 -0.1468283,-0.716712 -0.070373,-0.03435 -0.084871,-0.03527 -0.156622,-0.0099 -0.043489,0.01538 -0.097699,0.0531 -0.1204678,0.08382 -0.039219,0.05292 -0.041716,0.08419 -0.047451,0.59406 -0.00333,0.296008 -7.624e-4,0.56681 0.0057,0.601782 0.00647,0.03497 0.038836,0.09067 0.071932,0.123763 0.049037,0.04904 0.076519,0.06018 0.1484588,0.06018 0.049829,0 0.1107182,-0.0147 0.1397923,-0.03375 z M 2.6967971,10.776484 C 2.7206296,10.763232 2.8968945,10.583103 3.0884968,10.376195 3.4801857,9.9532186 3.5039915,9.9126612 3.4474594,9.7646343 3.3980984,9.6353844 3.2964778,9.5810014 3.169721,9.6160006 3.1188364,9.6300505 3.0225404,9.7210822 2.7683171,9.9954602 2.5843644,10.193997 2.4186654,10.378468 2.4000971,10.405396 c -0.041961,0.06085 -0.043876,0.200772 -0.00381,0.278254 0.053391,0.103246 0.200209,0.148602 0.3005086,0.09283 z m 4.8155294,-0.0029 c 0.073889,-0.03821 0.1024163,-0.07583 0.1214301,-0.160135 C 7.6641311,10.478772 7.6316166,10.427786 7.2568834,10.02247 7.0614335,9.8110683 6.8873055,9.6326493 6.8699325,9.6259826 6.7383687,9.5754968 6.5816558,9.6542949 6.5453301,9.7891986 c -0.036601,0.1359275 -0.00631,0.1844598 0.3663655,0.5870614 0.1914965,0.206872 0.3676747,0.386972 0.3915072,0.400224 0.058642,0.03261 0.1427162,0.03144 0.2091237,-0.0029 z M 5.4455446,9.8635214 C 5.5108911,9.8454469 5.6394608,9.7948937 5.731255,9.7511806 6.2487234,9.5047592 6.6183547,9.0393659 6.7682358,8.4455446 c 0.061214,-0.2425244 0.061214,-0.7475747 0,-0.9900991 C 6.5939176,6.7648059 6.1205469,6.2492747 5.4743947,6.0463691 5.3445168,6.0055846 5.2873816,6 5,6 4.7126184,6 4.6554832,6.0055846 4.5256053,6.0463691 3.8794531,6.2492747 3.4060824,6.7648059 3.2317642,7.4554455 c -0.061214,0.2425244 -0.061214,0.7475747 0,0.9900991 0.1859483,0.7367172 0.716239,1.2768938 1.4118002,1.4381194 0.1524077,0.035327 0.6462817,0.022923 0.8019802,-0.020143 z M 2.6257845,8.1627208 c 0.043261,-0.029062 0.077672,-0.075017 0.096377,-0.1287129 0.025589,-0.073455 0.025589,-0.093571 0,-0.1670257 -0.018705,-0.053695 -0.053116,-0.099651 -0.096377,-0.1287129 -0.065667,-0.044113 -0.079379,-0.0452 -0.5702903,-0.0452 -0.5568274,0 -0.587772,0.00585 -0.6602563,0.1247238 -0.073561,0.1206433 -0.035207,0.2774693 0.085921,0.3513253 0.058508,0.035675 0.1024744,0.03866 0.5703677,0.038728 0.4951027,7.23e-5 0.5085479,-9.841e-4 0.5742579,-0.045126 z m 5.881025,0.014536 C 8.6334651,8.1117602 8.6799626,7.9411259 8.604762,7.8177931 8.5322778,7.6989149 8.5013333,7.6930693 7.9445057,7.6930693 c -0.4909108,0 -0.5046231,0.00109 -0.5702903,0.0452 -0.043261,0.029062 -0.077672,0.075017 -0.096377,0.1287129 -0.025588,0.073455 -0.025588,0.093571 0,0.1670257 0.018705,0.053695 0.053116,0.099651 0.096377,0.1287129 0.065667,0.044113 0.079379,0.0452 0.5702903,0.0452 0.4153949,0 0.5133339,-0.00534 0.5623038,-0.030664 z M 3.3702628,6.2526871 c 0.023942,-0.015497 0.05868,-0.067846 0.077197,-0.1163313 C 3.5039915,5.9883289 3.4801857,5.9477715 3.0884968,5.5247948 2.8968945,5.3178874 2.7206296,5.1377577 2.6967971,5.1245064 2.5177775,5.0249688 2.3035333,5.2140314 2.3645536,5.4176991 c 0.031946,0.1066264 0.7106038,0.8417007 0.8004755,0.8670185 0.071233,0.020067 0.1417507,0.00906 0.2052337,-0.03203 z m 3.4853887,0.025026 C 6.9249625,6.2578281 7.6087091,5.5069671 7.6309907,5.42627 7.6514787,5.352068 7.6326507,5.2346151 7.5925097,5.1862514 7.5265517,5.1067764 7.3882297,5.0772264 7.3032849,5.1244634 7.2319989,5.1641054 6.5816574,5.8758532 6.5507471,5.9480573 c -0.039745,0.09284 -0.017318,0.206087 0.055166,0.2785711 0.075079,0.075079 0.1282176,0.085949 0.2497384,0.051085 z M 5.1342822,5.4635183 c 0.094191,-0.061716 0.1033416,-0.1237995 0.1033416,-0.7011421 0,-0.5749812 -0.00876,-0.6355495 -0.1013242,-0.7003823 -0.060133,-0.042119 -0.2030885,-0.041341 -0.2684109,0.00146 -0.097384,0.063809 -0.105515,0.1180171 -0.1054818,0.7032372 2.72e-5,0.4746642 0.00423,0.5486527 0.034654,0.6095469 0.063738,0.1275901 0.2156822,0.1669166 0.3372213,0.08728 z"
     id="path3" /><path
     style="fill:#000000;stroke-width:0.019802"
     d=""
     id="path4" /><path
     style="fill:#000000;stroke-width:0.019802"
     d="M 4.6994329,12.978376 C 3.6985145,12.921814 2.7446703,12.557901 1.9108911,11.914485 1.7080129,11.757927 1.2698878,11.323928 1.107653,11.118812 0.65626067,10.548109 0.33438446,9.8973265 0.16252799,9.2079208 0.04990136,8.7561166 0.02152265,8.5161046 0.02087574,8.009901 0.02029885,7.5584941 0.03586621,7.3855618 0.11089579,7.009901 0.55085976,4.807073 2.4727119,3.1409879 4.7095727,3.0232326 c 1.4480119,-0.076228 2.78366,0.4307922 3.7968865,1.441321 0.3043362,0.3035259 0.4327784,0.4595312 0.6673069,0.810508 0.3845147,0.575434 0.6570248,1.2955362 0.7689256,2.0318691 0.050603,0.3329788 0.050603,1.0531598 0,1.3861386 C 9.823017,9.4805558 9.5378642,10.20696 9.1031701,10.831683 8.7153519,11.389038 8.1638729,11.911692 7.6039604,12.25253 c -0.6842622,0.416535 -1.4994467,0.679929 -2.2208382,0.717576 -0.118143,0.0062 -0.2593598,0.01399 -0.3138153,0.01739 -0.054455,0.0034 -0.2208988,-7.04e-4 -0.369874,-0.0091 z m 0.9243295,-1.017397 c 1.7374699,-0.269944 3.088193,-1.642366 3.345422,-3.399164 0.040683,-0.2778522 0.040683,-0.8457778 0,-1.12363 C 8.7807881,6.1514943 8.0107877,5.0540836 6.8772956,4.4568083 5.3729586,3.6641225 3.5302069,3.9010998 2.2902648,5.046699 1.5951095,5.6889624 1.1682603,6.4994784 1.0308157,7.438185 0.9701936,7.8522162 0.9949706,8.4619028 1.0898597,8.8910891 c 0.128135,0.5795551 0.4207339,1.1791149 0.8020967,1.6435639 0.1344385,0.163729 0.4372001,0.464162 0.5990395,0.594433 0.5909016,0.47564 1.3173691,0.772954 2.103063,0.860699 0.2183119,0.02438 0.790381,0.0084 1.029703,-0.02881 z"
     id="path5" /><path
     style="fill:#000000;stroke-width:0.019802"
     d="M 4.6994329,12.977345 C 2.6405846,12.868837 0.80519087,11.413494 0.22035881,9.4257426 0.06974937,8.9138448 0.02054835,8.5627723 0.02054835,8 c 0,-0.440357 0.01641855,-0.6201792 0.09040036,-0.990099 C 0.5517498,4.8058311 2.4721107,3.1410195 4.7095727,3.0232326 6.1256004,2.9486885 7.4366911,3.4329742 8.451698,4.4054846 9.1864048,5.1094305 9.692776,6.0269174 9.8891042,7.009901 9.9630648,7.3802089 9.9794517,7.5597905 9.9794517,8 c 0,0.6991493 -0.1034208,1.2435651 -0.355482,1.8712871 -0.2495404,0.6214449 -0.6017404,1.1471349 -1.1084548,1.6544679 -1.0207452,1.021993 -2.3528464,1.528707 -3.816082,1.45159 z M 5.3790901,11.989328 C 6.3163248,11.895301 7.1119117,11.528123 7.7793739,10.881554 8.4076168,10.272977 8.786856,9.5601081 8.9541608,8.6732673 8.9947485,8.4581216 9.0111535,7.7900505 8.981941,7.5419576 8.7913814,5.9235972 7.6555412,4.5883832 6.0891089,4.1413476 4.9008895,3.802248 3.5911596,4.0472781 2.5880651,4.7963382 2.3953053,4.9402815 2.0419865,5.2817307 1.8855551,5.4752475 1.4863941,5.9690384 1.1942863,6.5873554 1.071676,7.1980198 1.008837,7.5109927 0.9951818,7.6986877 1.005483,8.1078814 c 0.01627,0.6463251 0.1142748,1.0617414 0.3827082,1.6222036 0.3441033,0.718453 0.894436,1.321036 1.5722051,1.721476 0.7216931,0.42639 1.5945149,0.620452 2.4186938,0.537767 z"
     id="path6" /></svg>
