<?xml version="1.0" encoding="UTF-8" standalone="no"?>
<svg
   width="16"
   height="16"
   fill="currentColor"
   class="bi bi-toggle2-on"
   viewBox="0 0 16 16"
   version="1.1"
   id="svg2"
   sodipodi:docname="toggle2-dark.svg"
   xml:space="preserve"
   inkscape:version="1.4.2 (f4327f4, 2025-05-13)"
   xmlns:inkscape="http://www.inkscape.org/namespaces/inkscape"
   xmlns:sodipodi="http://sodipodi.sourceforge.net/DTD/sodipodi-0.dtd"
   xmlns="http://www.w3.org/2000/svg"
   xmlns:svg="http://www.w3.org/2000/svg"><defs
     id="defs2" /><sodipodi:namedview
     id="namedview2"
     pagecolor="#ffffff"
     bordercolor="#000000"
     borderopacity="0.25"
     inkscape:showpageshadow="2"
     inkscape:pageopacity="0.0"
     inkscape:pagecheckerboard="0"
     inkscape:deskcolor="#d1d1d1"
     showgrid="false"
     inkscape:zoom="50.5"
     inkscape:cx="7.990099"
     inkscape:cy="8"
     inkscape:window-width="1920"
     inkscape:window-height="1010"
     inkscape:window-x="1433"
     inkscape:window-y="-6"
     inkscape:window-maximized="1"
     inkscape:current-layer="svg2" /><path
     d="M7 5H3a3 3 0 0 0 0 6h4a5 5 0 0 1-.584-1H3a2 2 0 1 1 0-4h3.416q.235-.537.584-1"
     id="path1" /><path
     d="M16 8A5 5 0 1 1 6 8a5 5 0 0 1 10 0"
     id="path2" /><g
     style="fill:#00ff00"
     id="g2"
     transform="matrix(0.48633806,0,0,0.44182329,7.1096598,4.5445642)"><path
       d="m 6,0.278 a 0.77,0.77 0 0 1 0.08,0.858 7.2,7.2 0 0 0 -0.878,3.46 c 0,4.021 3.278,7.277 7.318,7.277 q 0.792,-10e-4 1.533,-0.16 a 0.79,0.79 0 0 1 0.81,0.316 0.73,0.73 0 0 1 -0.031,0.893 A 8.35,8.35 0 0 1 8.344,16 C 3.734,16 0,12.286 0,7.71 0,4.266 2.114,1.312 5.124,0.06 A 0.75,0.75 0 0 1 6,0.278"
       id="path1-8"
       style="fill:#00ff00" /><path
       d="m 10.794,3.148 a 0.217,0.217 0 0 1 0.412,0 l 0.387,1.162 c 0.173,0.518 0.579,0.924 1.097,1.097 l 1.162,0.387 a 0.217,0.217 0 0 1 0,0.412 L 12.69,6.593 A 1.73,1.73 0 0 0 11.593,7.69 l -0.387,1.162 a 0.217,0.217 0 0 1 -0.412,0 L 10.407,7.69 A 1.73,1.73 0 0 0 9.31,6.593 L 8.148,6.206 a 0.217,0.217 0 0 1 0,-0.412 L 9.31,5.407 A 1.73,1.73 0 0 0 10.407,4.31 Z m 3.069,-3.049 a 0.145,0.145 0 0 1 0.274,0 l 0.258,0.774 c 0.115,0.346 0.386,0.617 0.732,0.732 l 0.774,0.258 a 0.145,0.145 0 0 1 0,0.274 l -0.774,0.258 a 1.16,1.16 0 0 0 -0.732,0.732 l -0.258,0.774 a 0.145,0.145 0 0 1 -0.274,0 L 13.605,3.127 A 1.16,1.16 0 0 0 12.873,2.395 L 12.099,2.137 a 0.145,0.145 0 0 1 0,-0.274 L 12.873,1.605 C 13.219,1.49 13.49,1.219 13.605,0.873 Z"
       id="path2-8"
       style="fill:#00ff00" /></g></svg>
